<?xml version="1.0" encoding="utf-8"?>
<!-- Generator: Adobe Illustrator 21.1.0, SVG Export Plug-In . SVG Version: 6.00 Build 0)  -->
<svg version="1.1" id="Logo" xmlns="http://www.w3.org/2000/svg" xmlns:xlink="http://www.w3.org/1999/xlink" x="0px" y="0px"
	 width="191.5220032px" height="130.2089996px" viewBox="0 0 191.5220032 130.2089996"
	 style="enable-background:new 0 0 191.5220032 130.2089996;" xml:space="preserve">
<style type="text/css">
	.st0{clip-path:url(#SVGID_2_);fill:url(#SVGID_3_);}
	.st1{clip-path:url(#SVGID_5_);fill:url(#SVGID_6_);}
	.st2{clip-path:url(#SVGID_8_);fill:url(#SVGID_9_);}
	.st3{clip-path:url(#SVGID_11_);fill:url(#SVGID_12_);}
	.st4{clip-path:url(#SVGID_14_);fill:url(#SVGID_15_);}
	.st5{clip-path:url(#SVGID_14_);fill:url(#SVGID_16_);}
	.st6{fill:url(#SVGID_17_);}
	.st7{fill:url(#SVGID_18_);}
	.st8{fill:url(#SVGID_19_);}
	.st9{fill:url(#SVGID_20_);}
</style>
<rect width="191.5220032" height="130.2089996"/>
<g>
	<g>
		<defs>
			<path id="SVGID_1_" d="M25.7668419,51.5320129c0,11.0469971,18.1930008,22.1589966,41.2389946,28.2299957
				c-14.0559959-1.477005-52.6939964-11.0469971-52.6939964-28.2299957c0-11.75,25.9659958-23.9630127,43.3679962-29.1360016
				C42.0488396,29.428009,25.7668419,40.0120087,25.7668419,51.5320129"/>
		</defs>
		<clipPath id="SVGID_2_">
			<use xlink:href="#SVGID_1_"  style="overflow:visible;"/>
		</clipPath>
		
			<linearGradient id="SVGID_3_" gradientUnits="userSpaceOnUse" x1="-201.0825958" y1="482.3574829" x2="-200.0825958" y2="482.3574829" gradientTransform="matrix(0 -57.3660011 -57.3660011 0 27711.578125 -11455.5419922)">
			<stop  offset="0" style="stop-color:#9C702F"/>
			<stop  offset="0.1122053" style="stop-color:#A4792F"/>
			<stop  offset="0.295097" style="stop-color:#B9912E"/>
			<stop  offset="0.5" style="stop-color:#D7B42D"/>
			<stop  offset="0.5142911" style="stop-color:#D4B02D"/>
			<stop  offset="0.6382529" style="stop-color:#BB932E"/>
			<stop  offset="0.7615331" style="stop-color:#AA7F2F"/>
			<stop  offset="0.8828975" style="stop-color:#A0722F"/>
			<stop  offset="1" style="stop-color:#9C6E2F"/>
		</linearGradient>
		<rect x="14.3118277" y="22.3959961" class="st0" width="52.6939964" height="57.3660049"/>
	</g>
	<g>
		<defs>
			<path id="SVGID_4_" d="M31.3858376,51.5320129c0,16.9850006,41.6590004,30.0269928,78.2079926,36.3190002
				C71.7738419,77.076004,42.9398384,64.9840088,42.9398384,51.5320129c0-14.4980011,17.685997-27.4459991,39.3159981-36.8950043
				C82.2558365,14.6370087,31.3858376,29.5400085,31.3858376,51.5320129"/>
		</defs>
		<clipPath id="SVGID_5_">
			<use xlink:href="#SVGID_4_"  style="overflow:visible;"/>
		</clipPath>
		
			<linearGradient id="SVGID_6_" gradientUnits="userSpaceOnUse" x1="-200.8109131" y1="483.29953" x2="-199.8109131" y2="483.29953" gradientTransform="matrix(0 -73.2139969 -73.2139969 0 35454.78125 -14614.3183594)">
			<stop  offset="0" style="stop-color:#9C702F"/>
			<stop  offset="0.1122053" style="stop-color:#A4792F"/>
			<stop  offset="0.295097" style="stop-color:#B9912E"/>
			<stop  offset="0.5" style="stop-color:#D7B42D"/>
			<stop  offset="0.5142911" style="stop-color:#D4B02D"/>
			<stop  offset="0.6382529" style="stop-color:#BB932E"/>
			<stop  offset="0.7615331" style="stop-color:#AA7F2F"/>
			<stop  offset="0.8828975" style="stop-color:#A0722F"/>
			<stop  offset="1" style="stop-color:#9C6E2F"/>
		</linearGradient>
		<rect x="31.3858414" y="14.6370163" class="st1" width="78.2080002" height="73.2139893"/>
	</g>
	<g>
		<defs>
			<path id="SVGID_7_" d="M165.0728455,51.5320129c0,11.0469971-18.1920013,22.1589966-41.2370071,28.2299957
				c14.0550003-1.477005,52.6940079-11.0469971,52.6940079-28.2299957c0-11.75-25.9629974-23.9630127-43.3710022-29.1360016
				C148.7948456,29.428009,165.0728455,40.0120087,165.0728455,51.5320129"/>
		</defs>
		<clipPath id="SVGID_8_">
			<use xlink:href="#SVGID_7_"  style="overflow:visible;"/>
		</clipPath>
		
			<linearGradient id="SVGID_9_" gradientUnits="userSpaceOnUse" x1="-201.0825958" y1="491.0615234" x2="-200.0825958" y2="491.0615234" gradientTransform="matrix(0 -57.3660011 57.3660011 0 -28020.0527344 -11455.5419922)">
			<stop  offset="0" style="stop-color:#9C702F"/>
			<stop  offset="0.1122053" style="stop-color:#A4792F"/>
			<stop  offset="0.295097" style="stop-color:#B9912E"/>
			<stop  offset="0.5" style="stop-color:#D7B42D"/>
			<stop  offset="0.5142911" style="stop-color:#D4B02D"/>
			<stop  offset="0.6382529" style="stop-color:#BB932E"/>
			<stop  offset="0.7615331" style="stop-color:#AA7F2F"/>
			<stop  offset="0.8828975" style="stop-color:#A0722F"/>
			<stop  offset="1" style="stop-color:#9C6E2F"/>
		</linearGradient>
		<rect x="123.8358383" y="22.3959961" class="st2" width="52.693985" height="57.3660049"/>
	</g>
	<g>
		<defs>
			<path id="SVGID_10_" d="M159.8438416,51.5320129c0,16.9850006-41.6580124,30.0269928-78.2050095,36.3190002
				c37.8190002-10.7750092,66.6540146-22.8670044,66.6540146-36.3190002c0-14.4980011-17.6890106-27.4459991-39.3160172-36.8950043
				C108.9768295,14.6370087,159.8438416,29.5400085,159.8438416,51.5320129"/>
		</defs>
		<clipPath id="SVGID_11_">
			<use xlink:href="#SVGID_10_"  style="overflow:visible;"/>
		</clipPath>
		
			<linearGradient id="SVGID_12_" gradientUnits="userSpaceOnUse" x1="-200.8109283" y1="490.1194763" x2="-199.8109283" y2="490.1194763" gradientTransform="matrix(0 -73.2139969 73.2139969 0 -35762.8632812 -14614.3193359)">
			<stop  offset="0" style="stop-color:#9C702F"/>
			<stop  offset="0.1122053" style="stop-color:#A4792F"/>
			<stop  offset="0.295097" style="stop-color:#B9912E"/>
			<stop  offset="0.5" style="stop-color:#D7B42D"/>
			<stop  offset="0.5142911" style="stop-color:#D4B02D"/>
			<stop  offset="0.6382529" style="stop-color:#BB932E"/>
			<stop  offset="0.7615331" style="stop-color:#AA7F2F"/>
			<stop  offset="0.8828975" style="stop-color:#A0722F"/>
			<stop  offset="1" style="stop-color:#9C6E2F"/>
		</linearGradient>
		<rect x="81.6388168" y="14.6369934" class="st3" width="78.2050018" height="73.2139893"/>
	</g>
	<g>
		<defs>
			<path id="SVGID_13_" d="M97.0238419,42.9179993c0.1719971-0.2809906,0.2299957-0.5119934,0.0939941-0.7189941
				c-0.1430054-0.2220001-0.3600006-0.1949921-0.9219971-0.2039948h-3.451004c-0.8150024,0-1.7089996,0.1559906-2.2839966,0.7949982
				c-0.4940033,0.5579987-0.8509979,1.220993-1.0390015,1.6199951l-0.6069946-0.1649933
				c0.2619934-0.875,0.4749908-1.6390076,0.8399963-3.0469971l11.2149963-0.0010071l0.2420044,0.3690033
				c-0.4450073,0.7129974-6.9470062,11.1779938-8.2360077,13.2379913c-0.1660004,0.2690125-0.496994,0.7880096-0.2539978,1.1840057
				c0.1660004,0.2769928,0.5639954,0.3309937,0.9920044,0.3309937c0.6230011,0,1.5130005,0,3.1929932,0
				c0.5940094,0,1.5859985-0.0909882,2.3560028-0.6499939c0.6499939-0.4720001,1.1069946-1.1660004,1.5130005-2.0950012
				l0.5859985,0.1560059c-0.3549957,1.196991-0.8159943,2.6559906-1.0740051,3.4049988H88.640831l-0.2419891-0.3860016
				C88.81884,56.0750122,96.5808334,43.6380005,97.0238419,42.9179993 M61.7308464,41.928009
				c2.325985,0,3.3709831,1.7789917,3.3709831,3.6949921c0,1.6210022-0.4529877,2.4560089-1.0859985,2.9570007
				c-0.6989861,0.5189972-1.4879875,0.6220093-2.3669853,0.6220093c-1.2110138,0-1.0590057-0.0010071-1.2110138-0.0010071
				c-0.3419952,0-0.5099945-0.1839905-0.5099945-0.6129913c0,0,0-5.1350098,0-5.8980103
				C59.9278374,41.9630127,60.4808464,41.928009,61.7308464,41.928009z M59.9278374,50.5310059
				c0-0.4299927,0.1679993-0.6119995,0.5099945-0.6119995c0.2290039,0,0.4410095,0,0.7660065,0
				c0.451004,0,0.6069946,0.2409973,0.9609985,0.7689972c0.7380066,1.07901,1.7109985,2.7350006,2.3339958,3.6159973
				c1.6970062,2.4250031,3.5270081,3.0190125,5.5660095,3.0190125c0.4569855,0,0.8279877-0.0540009,1.0529938-0.1140137v-0.3519897
				c-0.6549988-0.0460052-1.2720032-0.2940063-1.6719971-0.6529999c-1.6330109-1.3830109-3.0800018-3.5429993-4.9960022-6.6490021
				c-0.1269989-0.1759949-0.0800018-0.1940002,0.1049957-0.2510071c1.3170013-0.3969879,3.3930054-1.4769897,3.3930054-4.0399933
				c0-2.0160065-1.1880035-2.9430084-2.4459991-3.5209961c-1.1320038-0.5200043-2.5169945-0.5449982-3.9880028-0.5449982
				c-2.3509979,0-5.9120026,0-5.9120026,0v0.5909882l0.5740051,0.0890045
				c1.0339966,0.1569977,1.1529999,0.5709991,1.1529999,2.651001v9.2720032c0,2.0800018-0.1190033,2.3259888-1.1529999,2.5970001
				l-0.5740051,0.1419983v0.5950012h6.053009v-0.5950012l-0.5740051-0.1419983
				c-1.0359955-0.2710114-1.1529999-0.5169983-1.1529999-2.5970001V50.5310059z M77.3248367,53.8010101
				c0,2.0800018-0.1190033,2.3259888-1.1529999,2.5970001l-0.5740051,0.1419983v0.5950012h6.2369995v-0.5950012
				l-0.5749969-0.1419983c-1.0350037-0.2710114-1.1519928-0.5169983-1.1519928-2.5970001V44.529007
				c0-2.0800018,0.1169891-2.4940033,1.1519928-2.651001l0.5749969-0.0839996v-0.595993h-6.2369995v0.5909882l0.5740051,0.0890045
				c1.0339966,0.1569977,1.1529999,0.5709991,1.1529999,2.651001V53.8010101z M118.9238358,53.9309998l-4.3410034-12.7329865
				h-1.8419952c0,0-4.9920044,12.9799957-5.4100037,14.0809937c-0.1589966,0.4089966-0.4140015,0.8690033-1.1450043,1.0500031
				c-0.5039978,0.1239929-1.0799866,0.2109985-1.0799866,0.2109985v0.5950012h4.8609924v-0.5950012l-0.5469971-0.0630035
				c-0.8240051-0.095993-1.1869965-0.076004-0.7460022-1.3909912c0.1569977-0.4700012,1.1369934-3.3200073,1.2480011-3.6320038
				c0.1119995-0.3090057,0.470993-0.5590057,0.798996-0.5590057h3.7350006c0.326004,0,0.6790009,0.2510071,0.7850037,0.5619965
				l1.473999,4.3220062c0.1060028,0.3110046-0.0720062,0.5939941-0.4020081,0.6329956l-1.1149902,0.128006v0.5950012h5.9720001
				v-0.5950012c0,0-0.0429993-0.0079956-0.7100067-0.1419983C119.791832,56.2649994,119.6198349,55.9780121,118.9238358,53.9309998z
				 M112.5768356,44.1670074c0.0500031-0.1399994,0.1309967-0.1380005,0.1790009,0.003006l1.7859955,5.2369995
				c0.1070099,0.3099976-0.0749969,0.5629883-0.4029999,0.5629883h-3.0820007c-0.3280029,0-0.5019989-0.25-0.3899994-0.5589905
				C111.5018387,47.1190033,112.3088303,44.901001,112.5768356,44.1670074z M135.6878357,42.1350098
				c-1.1129913-0.6829987-2.8319855-0.9380035-4.8049927-0.9380035l-5.7260056,0.0010071v0.5909882l0.5780029,0.0890045
				c1.0329895,0.1569977,1.1499939,0.5709991,1.1499939,2.651001v9.2720032c0,2.0800018-0.1170044,2.3259888-1.1499939,2.5970001
				l-0.5780029,0.1419983v0.5950012h6.0600052v-0.5950012l-0.576004-0.1419983
				c-1.0329895-0.2710114-1.1499939-0.5169983-1.1499939-2.5970001v-2.5440063c0-0.4290009,0.1660004-0.6109924,0.5099945-0.6109924
				c0.2220001,0,1.1360016,0.0049896,1.701004-0.029007c1.6210022-0.0970001,2.6419983-0.4160004,3.6719971-0.9550018
				c1.0740051-0.5609894,2.4550018-1.7369995,2.4550018-3.923996
				C137.8288422,44.0830078,136.8088379,42.82901,135.6878357,42.1350098z M131.7518463,49.7810059
				c-0.4080048,0.0780029-0.8099976,0.0879974-1.1750031,0.0879974h-0.576004c-0.3439941,0-0.5099945-0.1829987-0.5099945-0.6129913
				v-6.6360016c0-0.6569977,0.5509949-0.6920013,1.8009949-0.6920013c2.5189972,0,3.6890106,1.4989929,3.6890106,3.8339996
				C134.9808502,47.8380127,134.5038452,49.2649994,131.7518463,49.7810059z"/>
		</defs>
		<clipPath id="SVGID_14_">
			<use xlink:href="#SVGID_13_"  style="overflow:visible;"/>
		</clipPath>
		
			<linearGradient id="SVGID_15_" gradientUnits="userSpaceOnUse" x1="-204.2923279" y1="471.2277832" x2="-203.2923279" y2="471.2277832" gradientTransform="matrix(0 -16.1259995 -16.1259995 0 7695.7338867 -3237.0949707)">
			<stop  offset="0" style="stop-color:#AD802B"/>
			<stop  offset="0.290909" style="stop-color:#B88B28"/>
			<stop  offset="1" style="stop-color:#D7B42D"/>
		</linearGradient>
		<rect x="55.6018257" y="41.196991" class="st4" width="82.2270126" height="16.1260147"/>
		
			<linearGradient id="SVGID_16_" gradientUnits="userSpaceOnUse" x1="-204.2923279" y1="471.2277832" x2="-203.2923279" y2="471.2277832" gradientTransform="matrix(0 -16.1259995 -16.1259995 0 7695.7338867 -3237.0949707)">
			<stop  offset="0" style="stop-color:#AD802B"/>
			<stop  offset="0.3" style="stop-color:#B88B28"/>
			<stop  offset="1" style="stop-color:#D7B42D"/>
		</linearGradient>
		<rect x="55.6018257" y="41.196991" class="st5" width="82.2270126" height="16.1260147"/>
	</g>
</g>
<linearGradient id="SVGID_17_" gradientUnits="userSpaceOnUse" x1="63.1934929" y1="109.0161438" x2="127.068985" y2="109.0161438">
	<stop  offset="0" style="stop-color:#9F6E2E"/>
	<stop  offset="0.1185527" style="stop-color:#A7782E"/>
	<stop  offset="0.3176906" style="stop-color:#BC922D"/>
	<stop  offset="0.527273" style="stop-color:#D7B42D"/>
	<stop  offset="0.6586267" style="stop-color:#C39D2E"/>
	<stop  offset="0.8801565" style="stop-color:#A67A2F"/>
	<stop  offset="1" style="stop-color:#9B6D2F"/>
</linearGradient>
<path class="st6" d="M72.6739655,105.870636c-0.2836914-0.3447266-0.6323242-0.6103516-1.0454102-0.7949219
	c-0.4130859-0.1855469-0.8911133-0.2773438-1.4335938-0.2773438c-0.5429688,0-1.0454102,0.1044922-1.5078125,0.3144531
	s-0.8632812,0.5019531-1.2026367,0.8779297c-0.3393555,0.3769531-0.6040039,0.8232422-0.7954102,1.3417969
	c-0.1914062,0.5175781-0.2866211,1.0791016-0.2866211,1.6835938c0,0.6162109,0.0952148,1.1806641,0.2866211,1.6923828
	s0.4536133,0.9560547,0.7866211,1.3320312c0.3330078,0.3769531,0.7241211,0.6689453,1.1743164,0.8789062
	s0.9345703,0.3144531,1.4526367,0.3144531c0.5917969,0,1.1157227-0.1230469,1.5722656-0.3701172
	c0.4560547-0.2460938,0.8325195-0.5917969,1.128418-1.0361328l2.4052734,1.7949219
	c-0.5551758,0.7773438-1.2583008,1.3505859-2.1088867,1.7207031c-0.8510742,0.3701172-1.7270508,0.5546875-2.6274414,0.5546875
	c-1.0234375,0-1.9672852-0.1601562-2.8300781-0.4814453c-0.8637695-0.3203125-1.6098633-0.7792969-2.2387695-1.3779297
	c-0.6289062-0.5976562-1.1191406-1.3222656-1.4707069-2.1738281c-0.3515625-0.8505859-0.5273438-1.8007812-0.5273438-2.8486328
	s0.1757812-1.9980469,0.5273438-2.8496094c0.3515663-0.8505859,0.8418007-1.5751953,1.4707069-2.1728516
	c0.6289062-0.5986328,1.375-1.0576172,2.2387695-1.3789062c0.862793-0.3203125,1.8066406-0.4804688,2.8300781-0.4804688
	c0.3701172,0,0.7553711,0.0341797,1.15625,0.1015625s0.7958984,0.1757812,1.184082,0.3232422
	c0.3886719,0.1484375,0.7617188,0.3457031,1.1191406,0.5927734c0.3579102,0.2460938,0.6782227,0.5488281,0.9624023,0.90625
	L72.6739655,105.870636z"/>
<linearGradient id="SVGID_18_" gradientUnits="userSpaceOnUse" x1="63.1854973" y1="109.0161438" x2="127.0609894" y2="109.0161438">
	<stop  offset="0" style="stop-color:#9F6E2E"/>
	<stop  offset="0.1185527" style="stop-color:#A7782E"/>
	<stop  offset="0.3176906" style="stop-color:#BC922D"/>
	<stop  offset="0.527273" style="stop-color:#D7B42D"/>
	<stop  offset="0.6586267" style="stop-color:#C39D2E"/>
	<stop  offset="0.8801565" style="stop-color:#A67A2F"/>
	<stop  offset="1" style="stop-color:#9B6D2F"/>
</linearGradient>
<path class="st7" d="M79.3998489,109.0161438c0-1.0478516,0.1757812-1.9980469,0.5273438-2.8496094
	c0.3515625-0.8505859,0.8417969-1.5751953,1.4707031-2.1728516c0.6289062-0.5986328,1.375-1.0576172,2.2387695-1.3789062
	c0.862793-0.3203125,1.8066406-0.4804688,2.8300781-0.4804688c1.0239258,0,1.9672852,0.1601562,2.8305664,0.4804688
	c0.8632812,0.3212891,1.6098633,0.7802734,2.2387695,1.3789062c0.6289062,0.5976562,1.1191406,1.3222656,1.4707031,2.1728516
	c0.3515625,0.8515625,0.5273438,1.8017578,0.5273438,2.8496094s-0.1757812,1.9980469-0.5273438,2.8486328
	c-0.3515625,0.8515625-0.8417969,1.5761719-1.4707031,2.1738281c-0.6289062,0.5986328-1.3754883,1.0576172-2.2387695,1.3779297
	c-0.8632812,0.3212891-1.8066406,0.4814453-2.8305664,0.4814453c-1.0234375,0-1.9672852-0.1601562-2.8300781-0.4814453
	c-0.8637695-0.3203125-1.6098633-0.7792969-2.2387695-1.3779297c-0.6289062-0.5976562-1.1191406-1.3222656-1.4707031-2.1738281
	C79.5756302,111.0141907,79.3998489,110.0639954,79.3998489,109.0161438z M82.3969193,109.0161438
	c0,0.6162109,0.0952148,1.1806641,0.2866211,1.6923828s0.465332,0.9560547,0.8232422,1.3320312
	c0.3579102,0.3769531,0.7866211,0.6689453,1.2861328,0.8789062s1.0571289,0.3144531,1.6738281,0.3144531
	s1.1748047-0.1044922,1.6743164-0.3144531s0.9282227-0.5019531,1.2856445-0.8789062
	c0.3579102-0.3759766,0.6323242-0.8203125,0.8237305-1.3320312c0.190918-0.5117188,0.2866211-1.0761719,0.2866211-1.6923828
	c0-0.6044922-0.0957031-1.1660156-0.2866211-1.6835938c-0.1914062-0.5185547-0.4658203-0.9648438-0.8237305-1.3417969
	c-0.3574219-0.3759766-0.7861328-0.6679688-1.2856445-0.8779297s-1.0576172-0.3144531-1.6743164-0.3144531
	s-1.1743164,0.1044922-1.6738281,0.3144531s-0.9282227,0.5019531-1.2861328,0.8779297
	c-0.3579102,0.3769531-0.6318359,0.8232422-0.8232422,1.3417969
	C82.4921341,107.8501282,82.3969193,108.4116516,82.3969193,109.0161438z"/>
<linearGradient id="SVGID_19_" gradientUnits="userSpaceOnUse" x1="63.1930046" y1="109.0161438" x2="127.0684967" y2="109.0161438">
	<stop  offset="0" style="stop-color:#9F6E2E"/>
	<stop  offset="0.1185527" style="stop-color:#A7782E"/>
	<stop  offset="0.3176906" style="stop-color:#BC922D"/>
	<stop  offset="0.527273" style="stop-color:#D7B42D"/>
	<stop  offset="0.6586267" style="stop-color:#C39D2E"/>
	<stop  offset="0.8801565" style="stop-color:#A67A2F"/>
	<stop  offset="1" style="stop-color:#9B6D2F"/>
</linearGradient>
<path class="st8" d="M97.0191803,109.0161438c0-1.0478516,0.1757812-1.9980469,0.5273438-2.8496094
	c0.3515625-0.8505859,0.8417969-1.5751953,1.4707031-2.1728516c0.6289062-0.5986328,1.375-1.0576172,2.2382812-1.3789062
	c0.8632812-0.3203125,1.8066406-0.4804688,2.8300781-0.4804688c1.0244141,0,1.9677734,0.1601562,2.8310547,0.4804688
	c0.8632812,0.3212891,1.609375,0.7802734,2.2382812,1.3789062c0.6289062,0.5976562,1.1191406,1.3222656,1.4707031,2.1728516
	c0.3515625,0.8515625,0.5273438,1.8017578,0.5273438,2.8496094s-0.1757812,1.9980469-0.5273438,2.8486328
	c-0.3515625,0.8515625-0.8417969,1.5761719-1.4707031,2.1738281c-0.6289062,0.5986328-1.375,1.0576172-2.2382812,1.3779297
	c-0.8632812,0.3212891-1.8066406,0.4814453-2.8310547,0.4814453c-1.0234375,0-1.9667969-0.1601562-2.8300781-0.4814453
	c-0.8632812-0.3203125-1.609375-0.7792969-2.2382812-1.3779297c-0.6289062-0.5976562-1.1191406-1.3222656-1.4707031-2.1738281
	C97.1949615,111.0141907,97.0191803,110.0639954,97.0191803,109.0161438z M100.0162506,109.0161438
	c0,0.6162109,0.0947266,1.1806641,0.2861328,1.6923828s0.4658203,0.9560547,0.8232422,1.3320312
	c0.3583984,0.3769531,0.7871094,0.6689453,1.2861328,0.8789062c0.5,0.2099609,1.0576172,0.3144531,1.6738281,0.3144531
	c0.6171875,0,1.1748047-0.1044922,1.6748047-0.3144531c0.4990234-0.2099609,0.9277344-0.5019531,1.2851562-0.8789062
	c0.3583984-0.3759766,0.6328125-0.8203125,0.8242188-1.3320312c0.1904297-0.5117188,0.2861328-1.0761719,0.2861328-1.6923828
	c0-0.6044922-0.0957031-1.1660156-0.2861328-1.6835938c-0.1914062-0.5185547-0.4658203-0.9648438-0.8242188-1.3417969
	c-0.3574219-0.3759766-0.7861328-0.6679688-1.2851562-0.8779297c-0.5-0.2099609-1.0576172-0.3144531-1.6748047-0.3144531
	c-0.6162109,0-1.1738281,0.1044922-1.6738281,0.3144531c-0.4990234,0.2099609-0.9277344,0.5019531-1.2861328,0.8779297
	c-0.3574219,0.3769531-0.6318359,0.8232422-0.8232422,1.3417969
	C100.1109772,107.8501282,100.0162506,108.4116516,100.0162506,109.0161438z"/>
<linearGradient id="SVGID_20_" gradientUnits="userSpaceOnUse" x1="63.1930046" y1="109.0161438" x2="127.0684967" y2="109.0161438">
	<stop  offset="0" style="stop-color:#9F6E2E"/>
	<stop  offset="0.1185527" style="stop-color:#A7782E"/>
	<stop  offset="0.3176906" style="stop-color:#BC922D"/>
	<stop  offset="0.527273" style="stop-color:#D7B42D"/>
	<stop  offset="0.6586267" style="stop-color:#C39D2E"/>
	<stop  offset="0.8801565" style="stop-color:#A67A2F"/>
	<stop  offset="1" style="stop-color:#9B6D2F"/>
</linearGradient>
<path class="st9" d="M115.0758209,102.4673157h2.8857422v5.4384766l5.0869141-5.4384766h3.7744141l-5.8271484,6.0859375
	l6.3271484,7.0117188h-4.0332031l-5.328125-6.2158203v6.2158203h-2.8857422V102.4673157z"/>
</svg>
